<?xml version="1.0" standalone="no"?>
<!DOCTYPE svg PUBLIC "-//W3C//DTD SVG 20010904//EN"
 "http://www.w3.org/TR/2001/REC-SVG-20010904/DTD/svg10.dtd">
<svg version="1.0" xmlns="http://www.w3.org/2000/svg"
 width="1200.000000pt" height="1200.000000pt" viewBox="0 0 1200.000000 1200.000000"
 preserveAspectRatio="xMidYMid meet">
<metadata>
Created by potrace 1.14, written by Peter Selinger 2001-2017
</metadata>
<g transform="translate(0.000000,1200.000000) scale(0.100000,-0.100000)"
fill="#000000" stroke="none">
<path d="M5635 9924 c-985 -107 -1830 -746 -2209 -1670 -130 -317 -191 -637
-190 -989 1 -231 12 -345 50 -540 203 -1032 1007 -1862 2032 -2095 192 -44
319 -60 517 -67 753 -24 1454 254 1990 792 230 230 372 428 516 720 137 279
232 615 260 919 14 157 6 488 -15 634 -62 413 -199 769 -427 1111 -155 232
-333 429 -539 597 -556 452 -1273 665 -1985 588z m640 -123 c141 -20 307 -58
438 -101 928 -302 1601 -1092 1751 -2055 82 -528 3 -1049 -234 -1530 -232
-472 -589 -849 -1055 -1113 -255 -144 -570 -251 -875 -299 -144 -22 -585 -25
-725 -5 -437 63 -867 243 -1217 508 -139 105 -383 352 -489 494 -270 361 -435
768 -501 1235 -20 141 -17 535 5 675 24 153 51 274 88 395 317 1029 1263 1768
2324 1814 157 7 370 -1 490 -18z"/>
<path d="M4380 8939 c-108 -43 -170 -188 -126 -293 37 -89 140 -153 227 -143
120 14 209 108 209 218 0 136 -93 230 -226 228 -32 0 -70 -5 -84 -10z m140
-114 c87 -45 71 -173 -25 -205 -56 -18 -128 23 -140 81 -21 95 78 169 165 124z"/>
<path d="M7307 8922 c-156 -89 -151 -315 8 -395 154 -76 325 30 325 202 0 67
-16 108 -59 154 -67 73 -186 90 -274 39z m189 -116 c39 -39 45 -89 17 -136
-56 -96 -203 -57 -206 54 -2 68 46 115 117 116 30 0 45 -7 72 -34z"/>
<path d="M6473 8782 l-363 -2 0 -55 0 -55 370 0 370 0 0 54 c0 30 -3 56 -7 58
-5 2 -171 2 -370 0z"/>
<path d="M4810 8725 l0 -55 55 0 55 0 0 55 0 55 -55 0 -55 0 0 -55z"/>
<path d="M5030 8725 l0 -55 370 0 370 0 0 55 0 55 -370 0 -370 0 0 -55z"/>
<path d="M5889 8776 c-2 -2 -2 -27 -1 -55 l4 -51 54 0 54 0 0 55 0 55 -53 0
c-30 0 -56 -2 -58 -4z"/>
<path d="M6960 8725 l0 -55 60 0 60 0 0 55 0 55 -60 0 -60 0 0 -55z"/>
<path d="M5818 8429 c-133 -31 -271 -145 -332 -271 -44 -94 -56 -154 -56 -288
l0 -110 -25 0 c-48 0 -130 -39 -172 -82 -83 -87 -78 -34 -81 -747 -3 -730 -6
-698 83 -788 87 -86 70 -84 726 -81 550 3 565 4 610 24 57 26 115 85 143 144
21 44 21 53 21 680 0 623 0 636 -21 680 -43 93 -122 153 -219 167 l-45 6 0
121 c0 192 -38 294 -149 405 -73 74 -138 113 -226 136 -64 16 -197 18 -257 4z
m244 -120 c114 -38 189 -106 242 -219 28 -60 31 -75 34 -198 l4 -132 -398 2
-399 3 -3 74 c-7 164 33 287 119 373 107 107 261 144 401 97z m464 -678 c23
-10 52 -34 65 -52 l24 -34 3 -623 c2 -615 2 -624 -18 -660 -12 -21 -37 -49
-57 -62 l-37 -25 -540 -3 c-367 -2 -553 0 -578 8 -49 14 -95 54 -113 97 -21
51 -22 1217 -1 1266 17 39 61 81 101 95 19 7 222 11 570 11 506 1 543 -1 581
-18z"/>
<path d="M6230 7488 c0 -27 0 -51 0 -55 0 -5 37 -10 82 -13 l83 -5 2 -70 c1
-38 2 -76 2 -82 1 -9 19 -13 56 -13 l55 0 0 98 c0 158 -24 182 -178 185 l-102
2 0 -47z"/>
<path d="M5869 7467 c-58 -22 -93 -52 -122 -105 -64 -117 -18 -260 101 -314
l42 -19 0 -314 0 -315 55 0 55 0 0 55 0 55 55 0 55 0 0 60 0 60 -55 0 -55 0 0
55 0 55 55 0 56 0 -3 57 -3 57 -52 -3 -53 -2 0 90 0 90 33 17 c82 41 137 130
137 218 0 37 -33 112 -63 144 -54 58 -167 86 -238 59z m152 -133 c10 -9 23
-32 28 -50 21 -75 -33 -144 -112 -144 -31 0 -46 7 -73 34 -27 27 -34 42 -34
73 0 55 33 99 85 114 28 8 83 -6 106 -27z"/>
<path d="M5370 6488 c0 -104 13 -152 48 -177 31 -22 45 -24 160 -22 l82 1 0
55 0 55 -85 0 -85 0 0 85 0 85 -60 0 -60 0 0 -82z"/>
<path d="M4386 8145 c-82 -29 -145 -120 -146 -208 -1 -171 176 -280 328 -203
57 29 75 48 101 106 82 181 -95 372 -283 305z m156 -133 c72 -68 22 -192 -77
-192 -68 0 -123 68 -111 135 6 31 45 77 76 88 28 11 85 -4 112 -31z"/>
<path d="M7325 8137 c-60 -29 -87 -57 -114 -117 -36 -79 -21 -164 40 -234 128
-145 362 -74 388 117 18 135 -69 243 -206 253 -47 4 -67 0 -108 -19z m140
-101 c61 -26 82 -102 45 -164 -50 -82 -169 -62 -200 33 -16 47 11 103 60 127
42 22 51 22 95 4z"/>
<path d="M4810 7935 l0 -55 55 0 55 0 0 55 0 55 -55 0 -55 0 0 -55z"/>
<path d="M5030 7935 l0 -55 145 0 145 0 0 55 0 55 -145 0 -145 0 0 -55z"/>
<path d="M6570 7935 l0 -55 140 0 140 0 0 55 0 55 -140 0 -140 0 0 -55z"/>
<path d="M6960 7935 l0 -55 60 0 60 0 0 55 0 55 -60 0 -60 0 0 -55z"/>
<path d="M4240 7250 l0 -60 55 0 55 0 0 60 0 60 -55 0 -55 0 0 -60z"/>
<path d="M4470 7253 l0 -58 280 0 280 0 0 58 0 57 -280 0 -280 0 0 -57z"/>
<path d="M6852 7255 c2 -30 6 -55 11 -55 4 0 131 0 282 0 l275 0 0 55 0 55
-285 0 -286 0 3 -55z"/>
<path d="M7532 7253 l3 -58 55 0 55 0 0 55 0 55 -58 3 -58 3 3 -58z"/>
<path d="M4422 6848 c-137 -24 -221 -186 -163 -314 22 -49 92 -111 140 -124
80 -22 154 -5 213 48 79 71 99 171 54 268 -43 92 -140 141 -244 122z m98 -123
c50 -26 73 -91 49 -138 -44 -85 -116 -98 -186 -34 -47 43 -36 133 21 168 37
23 77 24 116 4z"/>
<path d="M7324 6831 c-77 -35 -134 -128 -134 -219 0 -42 50 -132 90 -164 144
-112 361 -9 362 173 1 133 -92 229 -222 229 -32 0 -72 -8 -96 -19z m178 -130
c50 -56 31 -143 -37 -176 -59 -28 -125 -1 -151 62 -19 45 -5 92 39 129 43 37
109 30 149 -15z"/>
<path d="M4810 6625 l0 -55 110 0 110 0 0 55 0 55 -110 0 -110 0 0 -55z"/>
<path d="M6850 6625 l0 -55 115 0 115 0 0 55 0 55 -115 0 -115 0 0 -55z"/>
<path d="M4359 5972 c-131 -68 -159 -250 -56 -354 150 -149 402 -34 385 176
-10 117 -106 206 -223 206 -38 0 -67 -8 -106 -28z m156 -98 c33 -15 65 -65 65
-99 0 -35 -32 -84 -67 -100 -95 -46 -194 52 -148 148 16 35 63 66 98 67 11 0
34 -7 52 -16z"/>
<path d="M7324 5981 c-85 -39 -146 -150 -129 -238 35 -186 250 -258 381 -127
51 51 67 97 62 180 -3 50 -10 73 -34 106 -59 86 -186 122 -280 79z m146 -106
c81 -42 77 -166 -7 -202 -65 -27 -126 1 -153 71 -13 36 1 84 33 113 39 36 81
42 127 18z"/>
<path d="M4810 5775 l0 -55 55 0 55 0 0 55 0 55 -55 0 -55 0 0 -55z"/>
<path d="M5030 5775 l0 -55 370 0 370 0 0 55 0 55 -370 0 -370 0 0 -55z"/>
<path d="M5890 5775 l0 -55 55 0 55 0 0 55 0 55 -55 0 -55 0 0 -55z"/>
<path d="M6110 5775 l0 -55 370 0 370 0 0 55 0 55 -370 0 -370 0 0 -55z"/>
<path d="M6960 5775 l0 -55 60 0 60 0 0 55 0 55 -60 0 -60 0 0 -55z"/>
<path d="M4620 4022 c-46 -23 -71 -69 -77 -142 l-6 -60 -43 0 c-42 0 -44 -1
-44 -30 0 -29 2 -30 45 -30 l45 0 0 -225 0 -225 35 0 35 0 0 225 0 225 80 0
80 0 0 30 0 30 -80 0 -80 0 0 45 c0 51 20 99 45 109 26 10 74 7 97 -5 18 -9
24 -8 35 7 19 27 16 34 -22 50 -46 19 -102 18 -145 -4z"/>
<path d="M3607 4012 c-22 -24 -21 -45 1 -65 35 -32 82 -10 82 38 0 42 -54 59
-83 27z"/>
<path d="M1910 3650 l0 -340 35 0 35 0 2 262 3 263 129 -218 c106 -180 132
-218 149 -215 14 2 57 66 151 226 l131 223 3 -270 2 -271 35 0 35 0 0 340 0
340 -32 0 c-32 0 -36 -5 -178 -250 -127 -219 -146 -248 -158 -233 -6 9 -74
122 -149 250 -127 215 -140 233 -165 233 l-28 0 0 -340z"/>
<path d="M7350 3650 l0 -340 35 0 35 0 2 275 3 275 219 -275 c195 -244 222
-275 248 -275 l28 0 0 340 0 340 -35 0 -35 0 -2 -272 -3 -272 -218 272 c-197
247 -220 272 -247 272 l-30 0 0 -340z"/>
<path d="M8750 3875 l0 -55 -45 0 c-43 0 -45 -1 -45 -30 0 -29 2 -30 44 -30
l44 0 4 -179 c3 -163 5 -182 24 -208 42 -58 127 -79 199 -49 38 16 41 23 22
50 -11 15 -17 16 -35 7 -49 -26 -115 -5 -132 42 -5 16 -10 99 -10 183 l0 154
80 0 80 0 0 30 0 30 -80 0 -80 0 0 55 0 55 -35 0 -35 0 0 -55z"/>
<path d="M4060 3821 c-44 -14 -88 -40 -104 -63 -16 -22 -16 -21 -16 20 0 41
-1 42 -35 42 l-35 0 0 -255 0 -255 35 0 35 0 0 162 c0 185 11 224 76 267 48
33 149 36 191 5 56 -41 63 -71 63 -261 l0 -173 35 0 35 0 0 173 c0 94 -5 190
-11 212 -28 99 -157 160 -269 126z"/>
<path d="M4990 3821 c-107 -33 -190 -142 -190 -251 0 -100 73 -205 166 -240
181 -67 354 50 354 240 0 115 -58 203 -157 240 -54 20 -127 25 -173 11z m147
-66 c50 -21 72 -42 94 -90 26 -55 24 -137 -2 -193 -73 -149 -298 -126 -345 36
-30 102 11 203 101 243 49 23 104 24 152 4z"/>
<path d="M5521 3816 c-77 -26 -120 -89 -107 -160 11 -60 57 -88 188 -116 50
-11 102 -27 115 -35 31 -21 32 -76 2 -104 -44 -41 -166 -40 -250 2 l-46 23
-16 -29 -17 -28 55 -25 c162 -75 365 -16 365 106 0 85 -38 115 -190 149 -129
29 -167 68 -125 128 32 46 161 56 235 18 32 -17 34 -17 47 1 21 29 15 41 -29
59 -59 23 -172 29 -227 11z"/>
<path d="M6056 3816 c-119 -45 -186 -171 -159 -301 27 -127 123 -200 263 -200
61 0 85 5 124 25 62 32 77 53 53 77 -14 14 -21 15 -35 5 -66 -46 -132 -61
-200 -43 -51 14 -110 64 -128 108 -28 66 -36 63 201 63 l215 0 0 28 c0 87 -59
186 -133 224 -53 27 -149 33 -201 14z m144 -56 c41 -11 94 -61 109 -103 22
-58 27 -57 -169 -57 -117 0 -180 4 -180 10 0 19 30 84 48 104 23 26 90 56 127
56 17 0 46 -5 65 -10z"/>
<path d="M6659 3817 c-96 -36 -152 -98 -171 -190 -24 -113 25 -227 122 -281
49 -27 64 -31 135 -31 69 0 86 4 127 28 60 35 77 63 51 83 -25 18 -28 18 -59
-11 -89 -82 -242 -46 -295 70 -61 131 35 285 178 285 41 0 122 -35 130 -56 7
-18 24 -18 47 -1 26 19 8 49 -50 83 -55 32 -158 42 -215 21z"/>
<path d="M8259 3816 c-95 -34 -152 -97 -171 -189 -42 -200 136 -361 336 -303
234 68 234 421 0 492 -58 17 -117 17 -165 0z m186 -76 c68 -42 101 -144 76
-236 -27 -101 -150 -160 -249 -119 -127 53 -163 222 -69 324 58 62 168 77 242
31z"/>
<path d="M9223 3809 c-162 -64 -204 -297 -77 -425 49 -48 134 -77 212 -71 66
5 146 39 166 69 16 26 -17 58 -42 40 -66 -46 -132 -61 -200 -43 -51 14 -110
64 -128 108 -28 66 -36 63 201 63 l215 0 0 28 c0 49 -28 126 -61 165 -65 79
-185 107 -286 66z m157 -49 c41 -11 94 -61 109 -103 22 -58 27 -57 -169 -57
-117 0 -180 4 -180 10 0 19 30 84 48 104 23 26 90 56 127 56 17 0 46 -5 65
-10z"/>
<path d="M9778 3820 c-78 -23 -118 -70 -118 -136 0 -81 42 -113 184 -144 95
-20 139 -44 144 -78 12 -79 -114 -117 -238 -71 -30 11 -62 22 -70 25 -22 7
-45 -33 -29 -52 17 -21 134 -54 191 -54 158 0 257 98 202 200 -23 43 -64 64
-175 88 -111 23 -139 41 -139 87 0 88 125 112 271 51 11 -5 19 1 27 19 7 14
12 28 12 30 0 2 -30 13 -66 25 -68 20 -148 25 -196 10z"/>
<path d="M2730 3816 c0 -3 50 -114 110 -247 61 -134 110 -249 110 -256 0 -25
-39 -91 -67 -113 -22 -17 -37 -21 -71 -17 -24 2 -51 12 -62 22 -18 16 -19 15
-34 -13 l-16 -30 43 -21 c73 -36 155 -23 205 31 17 19 302 626 302 644 0 2
-15 4 -33 4 l-33 0 -94 -210 c-51 -115 -96 -210 -99 -210 -3 0 -21 35 -40 78
-151 342 -151 342 -187 342 -19 0 -34 -2 -34 -4z"/>
<path d="M3610 3565 l0 -255 35 0 35 0 0 255 0 255 -35 0 -35 0 0 -255z"/>
</g>
</svg>
